<svg id="logo" xmlns="http://www.w3.org/2000/svg" viewBox="0 0 1070 325"><defs><style>.cls-1{font-size:200px;font-family:FranklinGothic-Heavy, Franklin Gothic Heavy;letter-spacing:-0.02em;}.cls-1,.cls-5{fill:#103e75;}.cls-2{letter-spacing:-0.01em;}.cls-3,.cls-4{fill:#47c7ea;}.cls-3{stroke:#47c7ea;stroke-miterlimit:10;stroke-width:3px;}</style></defs><title>Artboard 1</title><g id="text"><text class="cls-1" transform="translate(233.07 269.7) scale(1 1.1)">L<tspan class="cls-2" x="103.96" y="0">ONDON</tspan></text><g id="DISCOVERING_path" data-name="DISCOVERING path"><path class="cls-3" d="M259.61,103.4H245.56V50.32h14a20.8,20.8,0,0,1,11.48,3.34,25.11,25.11,0,0,1,8.37,9A28.4,28.4,0,0,1,283,75.34a40.72,40.72,0,0,1-.69,8.11A26.37,26.37,0,0,1,274,97.9,21.15,21.15,0,0,1,259.61,103.4Zm0-2.77a18.8,18.8,0,0,0,12.83-4.92A23.62,23.62,0,0,0,279.8,82.8a29,29,0,0,0,.65-6.1,25.42,25.42,0,0,0-3.17-12.61,22.62,22.62,0,0,0-7.48-8,18.57,18.57,0,0,0-10.22-3H248.12v47.5Z"/><path class="cls-3" d="M329.57,103.4H327V50.32h2.56Z"/><path class="cls-3" d="M386.16,103.68a17.92,17.92,0,0,1-8.83-2.35A14.33,14.33,0,0,1,371,94.05L373.35,93a12,12,0,0,0,6.79,6.83,16.63,16.63,0,0,0,6,1.16,14.15,14.15,0,0,0,9.6-3.45,8.81,8.81,0,0,0,2.92-6.71q-.1-5.13-6.68-9.35c-1.82-1.15-3.63-2.2-5.43-3.13q-8.19-4.22-12.27-9.56A10.13,10.13,0,0,1,372,62.53a11.7,11.7,0,0,1,2.71-7.67,14.11,14.11,0,0,1,7.69-4.54,17.57,17.57,0,0,1,4.2-.52,26.74,26.74,0,0,1,4.21.46A14.26,14.26,0,0,1,396.55,53a14.57,14.57,0,0,1,4.8,6.39l-2.34,1a12,12,0,0,0-6.79-6.82,15.69,15.69,0,0,0-5.69-1.09A13.31,13.31,0,0,0,377,56.1a8.61,8.61,0,0,0-2.52,6.59,9.35,9.35,0,0,0,2.67,5.52,29.93,29.93,0,0,0,5.36,4.62,42.82,42.82,0,0,0,5.15,3,64.18,64.18,0,0,1,5.93,3.49,22.45,22.45,0,0,1,5.27,4.82,10.81,10.81,0,0,1,2.34,6.62,11.81,11.81,0,0,1-3.07,8,15,15,0,0,1-8.14,4.5A18.42,18.42,0,0,1,386.16,103.68Z"/><path class="cls-3" d="M462.91,104.16a22.37,22.37,0,0,1-12.47-3.67,26.72,26.72,0,0,1-9-9.88,29.73,29.73,0,0,1,0-27.46,27,27,0,0,1,9-9.9,22.31,22.31,0,0,1,12.47-3.69A23.43,23.43,0,0,1,479,56.14l-2,1.85a21,21,0,0,0-14.16-5.62,20.05,20.05,0,0,0-11.19,3.31,24.08,24.08,0,0,0-8.06,8.88,26.66,26.66,0,0,0,0,24.65,24.13,24.13,0,0,0,8.06,8.87,20,20,0,0,0,11.19,3.31q8.68,0,15.4-6.78l1.93,1.8Q472.73,104.17,462.91,104.16Z"/><path class="cls-3" d="M540.56,104a20.48,20.48,0,0,1-11.86-3.69,26.49,26.49,0,0,1-8.56-9.9,31.1,31.1,0,0,1,0-27.44,26.66,26.66,0,0,1,8.56-9.88,21,21,0,0,1,23.76,0A26.57,26.57,0,0,1,561,63a31,31,0,0,1,0,27.44,26.41,26.41,0,0,1-8.56,9.9A20.51,20.51,0,0,1,540.56,104Zm0-2.81a18.24,18.24,0,0,0,10.63-3.31,23.74,23.74,0,0,0,7.62-8.87,28,28,0,0,0,0-24.61,23.69,23.69,0,0,0-7.62-8.88,18.64,18.64,0,0,0-21.21,0,23.85,23.85,0,0,0-7.65,8.88,27.9,27.9,0,0,0,0,24.61A23.9,23.9,0,0,0,530,97.92,18.17,18.17,0,0,0,540.56,101.23Z"/><path class="cls-3" d="M620.78,103.68,598.26,50.32h2.81L620.81,97.1l20.11-46.78h2.81Z"/><path class="cls-3" d="M713.18,103.4h-29.6V50.32h29.6v2.77H686.1v22h22.84v2.77H686.1v22.72h27.08Z"/><path class="cls-3" d="M786.38,103.4h-3L768.72,78.87H756.23V103.4h-2.52V50.32H771.6a15.25,15.25,0,0,1,11.06,4.18c2.55,2.65,3.86,6.29,3.9,10.92a12.71,12.71,0,0,1-3.24,9.07A12.38,12.38,0,0,1,779,77.42a19.7,19.7,0,0,1-7.27,1.45ZM771.49,76.06c.27,0,.91,0,1.93-.1a17.62,17.62,0,0,0,3.89-.84,10.54,10.54,0,0,0,4.25-2.63A9.76,9.76,0,0,0,784,65.54q0-5.78-3.07-9a12.79,12.79,0,0,0-9.27-3.46H756.23V76.06Z"/><path class="cls-3" d="M834.25,103.4H831.7V50.32h2.55Z"/><path class="cls-3" d="M918.19,103.6,878.26,57V103.4H875.7V49.92l39.93,46.66V50.32h2.56Z"/><path class="cls-3" d="M984.17,103.8a22.37,22.37,0,0,1-12.51-3.69,26.94,26.94,0,0,1-9-9.9,29.73,29.73,0,0,1,0-27.46,26.8,26.8,0,0,1,9-9.88,22.43,22.43,0,0,1,12.51-3.67q9.2,0,16.6,7l-1.71,2.08Q992.42,52,984.17,52a20,20,0,0,0-11.23,3.31,24.13,24.13,0,0,0-8.06,8.87,26.76,26.76,0,0,0,0,24.66,24.13,24.13,0,0,0,8.06,8.87A20,20,0,0,0,984.17,101q8.69,0,15.4-6.82V79.07l-13.1.16,0-2.77,15.69-.2V95.33Q994.43,103.81,984.17,103.8Z"/></g></g><g id="icon"><g id="large_ring" data-name="large ring"><path class="cls-4" d="M190.92,240.7a14.41,14.41,0,0,1-3.87,9.49,32.51,32.51,0,0,1-7.65,6.25A74.68,74.68,0,0,1,161.66,264a126.72,126.72,0,0,1-18.73,3.83c-3.16.4-6.33.68-9.51.87s-6.35.24-9.53.26a144.06,144.06,0,0,1-37.76-5,81.8,81.8,0,0,1-9.08-3.13,59.47,59.47,0,0,1-8.68-4.32,32.56,32.56,0,0,1-7.65-6.26,14.4,14.4,0,0,1-3.86-9.49A14.16,14.16,0,0,1,61,231.48a31.7,31.7,0,0,1,7.76-5.81,74.32,74.32,0,0,1,17.76-6.6,131.86,131.86,0,0,1,18.56-3.18,166,166,0,0,1,18.78-.9,186.66,186.66,0,0,1,18.76,1,133.2,133.2,0,0,1,18.56,3.13A72.26,72.26,0,0,1,179,225.65a31.55,31.55,0,0,1,7.76,5.82A14.16,14.16,0,0,1,190.92,240.7Zm-2.83,0a11.46,11.46,0,0,0-3.15-7.61,29.56,29.56,0,0,0-7-5.69,71.61,71.61,0,0,0-17-7.23,126.5,126.5,0,0,0-18.33-3.76c-3.1-.39-6.22-.66-9.34-.85s-6.25-.24-9.37-.25a140.83,140.83,0,0,0-37,4.91,70.2,70.2,0,0,0-17.07,7.16,29.8,29.8,0,0,0-7,5.7,10.14,10.14,0,0,0,.31,15,29.58,29.58,0,0,0,7.08,5.26,72,72,0,0,0,17.07,6.3,130.75,130.75,0,0,0,18.16,3.11,164.67,164.67,0,0,0,18.45.87,182.74,182.74,0,0,0,18.43-1,130.21,130.21,0,0,0,18.15-3,70.22,70.22,0,0,0,17.1-6.23,29.16,29.16,0,0,0,7.08-5.27A11.41,11.41,0,0,0,188.09,240.7Z"/></g><g id="small_ring" data-name="small ring"><path class="cls-4" d="M168.29,236.32a7.86,7.86,0,0,1-.82,3.63,11.7,11.7,0,0,1-2,2.91,22.92,22.92,0,0,1-5.27,4,54.31,54.31,0,0,1-11.84,4.84,89,89,0,0,1-25,3.19,99.76,99.76,0,0,1-24.94-3.25,51.94,51.94,0,0,1-11.86-4.77,23,23,0,0,1-5.27-4,11.68,11.68,0,0,1-2-2.92,7.54,7.54,0,0,1,.18-7.18,11.45,11.45,0,0,1,2.13-2.71A22.3,22.3,0,0,1,87,226.45a54.27,54.27,0,0,1,11.86-3.92,97.56,97.56,0,0,1,12.23-1.84,115.13,115.13,0,0,1,12.32-.48,127.38,127.38,0,0,1,24.53,2.38,51.68,51.68,0,0,1,11.88,3.85,22.1,22.1,0,0,1,5.37,3.61,11,11,0,0,1,2.12,2.72A7.74,7.74,0,0,1,168.29,236.32Zm-2.82,0a6.65,6.65,0,0,0-2-4.57,20,20,0,0,0-4.6-3.53,51.54,51.54,0,0,0-11.18-4.59,86.69,86.69,0,0,0-24.27-3.1,96.52,96.52,0,0,0-24.26,3.16,49,49,0,0,0-11.21,4.51,20.32,20.32,0,0,0-4.6,3.54,6.68,6.68,0,0,0-2,4.58,6.55,6.55,0,0,0,2.32,4.28,19.56,19.56,0,0,0,4.7,3.1,51.38,51.38,0,0,0,11.2,3.66,92.27,92.27,0,0,0,11.85,1.77,114.69,114.69,0,0,0,12,.47,126.83,126.83,0,0,0,23.85-2.3,49,49,0,0,0,11.22-3.6,19.69,19.69,0,0,0,4.69-3.1A6.58,6.58,0,0,0,165.47,236.32Z"/></g><g id="location_marker" data-name="location marker"><path class="cls-5" d="M123.45,53.63c-41.3,0-66.95,32.61-66.95,73.91,0,53.21,67,108.69,67,108.69s67-54.81,67-107.82C190.4,87.11,164.75,53.63,123.45,53.63Zm1.11,101.31a31.66,31.66,0,1,1,31.66-31.66A31.65,31.65,0,0,1,124.56,154.94Z"/></g></g></svg>