<?xml version="1.0" encoding="utf-8"?>
<!-- Generator: Adobe Illustrator 22.1.0, SVG Export Plug-In . SVG Version: 6.00 Build 0)  -->
<svg version="1.1" id="logo" xmlns="http://www.w3.org/2000/svg" xmlns:xlink="http://www.w3.org/1999/xlink" x="0px" y="0px"
	 viewBox="0 0 947.3 226.8" style="enable-background:new 0 0 947.3 226.8;" xml:space="preserve">
<style type="text/css">
	.st0{display:none;}
	.st1{display:inline;fill:#FFFFFF;}
	.st2{font-family:'FranklinGothic-Heavy';}
	.st3{font-size:200px;}
	.st4{letter-spacing:-2;}
	.st5{fill:#FFFFFF;}
	.st6{display:none;fill:#47C7EA;stroke:#47C7EA;stroke-width:3;stroke-miterlimit:10;}
	.st7{font-family:'LOVES-REG';}
	.st8{font-size:74.75px;}
	.st9{letter-spacing:30;}
	.st10{fill:#47C7EA;stroke:#47C7EA;stroke-width:3;stroke-miterlimit:10;}
	.st11{fill:#47C7EA;}
</style>
<g id="text">
	<g id="LONDON_text" class="st0">
		<text transform="matrix(1 0 0 1.1 176.5297 223.6518)" class="st1 st2 st3 st4">LONDON</text>
	</g>
	<g id="LONDON_path">
		<path class="st5" d="M282.5,187.7v36H189V77h40.9v110.6H282.5z"/>
		<path class="st5" d="M350.6,225.9c-18.8,0-34-6.8-45.8-20.5c-11.8-13.7-17.7-32-17.7-54.9c0-21.9,5.6-40,16.9-54.3
			c11.3-14.3,27-21.4,47-21.4c18.6,0,33.7,6.7,45.4,20.2c11.7,13.5,17.5,31.4,17.5,53.9c0,23.3-5.9,41.9-17.7,56
			C384.4,218.9,369.2,225.9,350.6,225.9z M350.4,192.6c6.9,0,11.9-3.3,14.9-9.9c3-6.6,4.5-18.7,4.5-36.4c0-25.5-6.2-38.2-18.7-38.2
			c-13.4,0-20.1,14.5-20.1,43.6C331.1,179,337.5,192.6,350.4,192.6z"/>
		<path class="st5" d="M543.1,223.7h-33.3l-36.5-64.8c-4.7-8.3-9.4-18.4-14.2-30.3c2.1,9.5,3.2,17.5,3.2,24.1v71h-33.2V77h38.7
			l31.1,53.7c6.2,10.7,10.9,20.1,14.1,28.1c-2.1-12.5-3.1-25.4-3.1-38.5V77h33.3V223.7z"/>
		<path class="st5" d="M564.4,223.7V77h51.6c22.4,0,39.2,7.3,50.3,21.9s16.7,31.5,16.7,50.7c0,21.9-6,39.7-17.9,53.4
			c-11.9,13.7-27.5,20.6-46.5,20.6H564.4z M605.3,189.9h10.6c6.8,0,12.5-3.6,17.1-10.8c4.7-7.2,7-17.1,7-29.5
			c0-10.7-2.1-19.9-6.2-27.6c-4.1-7.7-10.1-11.6-17.9-11.6h-10.6V189.9z"/>
		<path class="st5" d="M755.8,225.9c-18.8,0-34-6.8-45.8-20.5c-11.8-13.7-17.7-32-17.7-54.9c0-21.9,5.6-40,16.9-54.3
			c11.3-14.3,27-21.4,47-21.4c18.6,0,33.7,6.7,45.4,20.2c11.7,13.5,17.5,31.4,17.5,53.9c0,23.3-5.9,41.9-17.7,56
			C789.7,218.9,774.5,225.9,755.8,225.9z M755.6,192.6c6.9,0,11.9-3.3,14.9-9.9c3-6.6,4.5-18.7,4.5-36.4c0-25.5-6.2-38.2-18.7-38.2
			c-13.4,0-20.1,14.5-20.1,43.6C736.3,179,742.7,192.6,755.6,192.6z"/>
		<path class="st5" d="M948.4,223.7h-33.3l-36.5-64.8c-4.7-8.3-9.4-18.4-14.2-30.3c2.1,9.5,3.2,17.5,3.2,24.1v71h-33.2V77h38.7
			l31.1,53.7c6.2,10.7,10.9,20.1,14.1,28.1c-2.1-12.5-3.1-25.4-3.1-38.5V77h33.3V223.7z"/>
	</g>
	<text id="DISCOVERING_text" transform="matrix(1 0 0 1.1 182.5986 57.3493)" class="st6 st7 st8 st9">DISCOVERING</text>
	<g id="DISCOVERING_path">
		<path class="st10" d="M204,57.3h-14.1V4.3h14c4.2,0,8,1.1,11.5,3.3c3.5,2.2,6.3,5.2,8.4,9c2.1,3.7,3.3,8,3.5,12.7
			c0,3.2-0.2,5.9-0.7,8.1c-1.3,6-4.1,10.8-8.2,14.5C214.2,55.5,209.4,57.3,204,57.3z M204,54.6c4.8,0,9.1-1.6,12.8-4.9
			c3.7-3.3,6.2-7.6,7.4-12.9c0.4-2,0.7-4,0.7-6.1c0-4.6-1.1-8.8-3.2-12.6c-1.9-3.3-4.4-6-7.5-8c-3.1-2-6.5-3-10.2-3h-11.5v47.5H204z
			"/>
		<path class="st10" d="M273.9,57.3h-2.6V4.3h2.6V57.3z"/>
		<path class="st10" d="M330.5,57.6c-3.1,0-6-0.8-8.8-2.3c-2.8-1.6-4.9-4-6.3-7.3l2.3-1.1c1.4,3.3,3.7,5.6,6.8,6.8
			c2,0.8,4,1.2,6,1.2c3.7,0,6.9-1.2,9.6-3.5c1.8-1.6,2.8-3.8,2.9-6.7c-0.1-3.4-2.3-6.5-6.7-9.4c-1.8-1.2-3.6-2.2-5.4-3.1
			c-5.5-2.8-9.5-6-12.3-9.6c-1.6-2-2.3-4.1-2.3-6.2c0-2.9,0.9-5.5,2.7-7.7c1.8-2.2,4.4-3.7,7.7-4.5c1.4-0.3,2.8-0.5,4.2-0.5
			c1,0,2.5,0.2,4.2,0.5c1.8,0.3,3.7,1.2,5.8,2.8c2.1,1.5,3.7,3.7,4.8,6.4l-2.3,1c-1.5-3.4-3.7-5.6-6.8-6.8c-1.9-0.7-3.8-1.1-5.7-1.1
			c-3.8,0-7,1.2-9.5,3.6c-1.7,1.6-2.5,3.8-2.5,6.6c0.2,1.9,1.1,3.8,2.7,5.5c1.6,1.8,3.4,3.3,5.4,4.6c2,1.3,3.7,2.3,5.1,3
			c1.9,1,3.9,2.2,5.9,3.5c2,1.3,3.8,2.9,5.3,4.8c1.5,1.9,2.3,4.1,2.3,6.6c0,3.1-1.1,5.8-3.1,8c-2,2.2-4.7,3.7-8.1,4.5
			C333.1,57.5,331.8,57.6,330.5,57.6z"/>
		<path class="st10" d="M407.2,58.1c-4.6,0-8.7-1.2-12.5-3.7c-3.8-2.4-6.8-5.7-9-9.9c-2.2-4.1-3.4-8.7-3.4-13.8
			c0-5,1.1-9.6,3.4-13.7c2.2-4.1,5.2-7.4,9-9.9c3.8-2.5,7.9-3.7,12.5-3.7c5.9,0,11.3,2.2,16.1,6.6l-2,1.8c-4.3-3.7-9-5.6-14.2-5.6
			c-4.1,0-7.8,1.1-11.2,3.3c-3.4,2.2-6.1,5.2-8.1,8.9c-2,3.7-3,7.8-3,12.3c0,4.5,1,8.6,3,12.3c2,3.7,4.7,6.7,8.1,8.9
			c3.4,2.2,7.1,3.3,11.2,3.3c5.8,0,10.9-2.3,15.4-6.8l1.9,1.8C419.6,55.5,413.8,58.1,407.2,58.1z"/>
		<path class="st10" d="M484.9,58c-4.3,0-8.3-1.2-11.9-3.7c-3.6-2.5-6.4-5.8-8.6-9.9c-2.1-4.1-3.2-8.7-3.2-13.7
			c0-5,1.1-9.6,3.2-13.7c2.1-4.1,5-7.4,8.6-9.9c3.6-2.5,7.5-3.7,11.9-3.7c4.4,0,8.3,1.2,11.9,3.7c3.6,2.5,6.4,5.8,8.6,9.9
			c2.1,4.1,3.2,8.7,3.2,13.7c0,5-1.1,9.6-3.2,13.7c-2.1,4.1-5,7.4-8.6,9.9C493.2,56.8,489.3,58,484.9,58z M484.9,55.2
			c3.9,0,7.4-1.1,10.6-3.3c3.2-2.2,5.7-5.2,7.6-8.9c1.9-3.7,2.8-7.8,2.8-12.3c0-4.5-0.9-8.6-2.8-12.3c-1.9-3.7-4.4-6.7-7.6-8.9
			s-6.7-3.3-10.6-3.3c-3.9,0-7.4,1.1-10.6,3.3s-5.7,5.2-7.6,8.9c-1.9,3.7-2.9,7.8-2.9,12.3c0,4.5,1,8.6,2.9,12.3
			c1.9,3.7,4.5,6.7,7.6,8.9C477.5,54.1,481,55.2,484.9,55.2z"/>
		<path class="st10" d="M565.1,57.6L542.6,4.3h2.8L565.2,51l20.1-46.8h2.8L565.1,57.6z"/>
		<path class="st10" d="M657.5,57.3h-29.6V4.3h29.6V7h-27.1v22h22.8v2.8h-22.8v22.7h27.1V57.3z"/>
		<path class="st10" d="M730.7,57.3h-3l-14.6-24.5h-12.5v24.5h-2.5V4.3h17.9c4.5,0,8.2,1.4,11.1,4.2c2.6,2.6,3.9,6.3,3.9,10.9
			c0,3.7-1.1,6.8-3.2,9.1c-1.3,1.3-2.8,2.3-4.3,2.9c-2.5,1-4.9,1.4-7.3,1.4L730.7,57.3z M715.8,30c0.3,0,0.9,0,1.9-0.1
			c1-0.1,2.3-0.3,3.9-0.8c1.6-0.5,3-1.4,4.3-2.6c1.6-1.7,2.4-4.1,2.4-6.9c0-3.9-1-6.8-3.1-9c-2.4-2.3-5.5-3.5-9.3-3.5h-15.4V30
			H715.8z"/>
		<path class="st10" d="M778.6,57.3H776V4.3h2.6V57.3z"/>
		<path class="st10" d="M862.5,57.5l-39.9-46.7v46.5H820V3.9L860,50.5V4.3h2.6V57.5z"/>
		<path class="st10" d="M928.5,57.8c-4.6,0-8.7-1.2-12.5-3.7c-3.8-2.5-6.8-5.8-9-9.9s-3.4-8.7-3.4-13.7c0-5,1.1-9.6,3.4-13.8
			s5.2-7.4,9-9.9c3.8-2.4,7.9-3.7,12.5-3.7c6.1,0,11.7,2.3,16.6,7l-1.7,2.1C939,8,934,5.9,928.5,5.9c-4.1,0-7.9,1.1-11.2,3.3
			c-3.4,2.2-6.1,5.2-8.1,8.9c-2,3.7-3,7.8-3,12.3c0,4.5,1,8.6,3,12.3c2,3.7,4.7,6.7,8.1,8.9s7.1,3.3,11.2,3.3
			c5.8,0,10.9-2.3,15.4-6.8V33l-13.1,0.2l0-2.8l15.7-0.2v19.1C941.3,54.9,935.3,57.8,928.5,57.8z"/>
	</g>
</g>
<g id="icon">
	<g id="large_ring">
		<path class="st11" d="M135.3,194.6c0.1,3.6-1.7,7-3.9,9.5c-2.2,2.6-4.9,4.5-7.7,6.3c-5.6,3.4-11.6,5.7-17.7,7.5
			c-6.2,1.8-12.4,3-18.7,3.8c-3.2,0.4-6.3,0.7-9.5,0.9c-3.2,0.2-6.4,0.2-9.5,0.3c-12.7-0.1-25.4-1.5-37.8-5
			c-3.1-0.9-6.1-1.9-9.1-3.1c-3-1.2-5.9-2.6-8.7-4.3c-2.8-1.7-5.4-3.7-7.7-6.3c-2.2-2.5-3.9-5.9-3.9-9.5c0.1-3.6,1.9-6.8,4.2-9.2
			c2.3-2.4,5-4.2,7.8-5.8c5.6-3.1,11.7-5.1,17.8-6.6c6.1-1.5,12.3-2.5,18.6-3.2c6.2-0.7,12.5-0.9,18.8-0.9c6.3,0,12.5,0.4,18.8,1
			c6.2,0.6,12.5,1.6,18.6,3.1c6.1,1.5,12.2,3.5,17.8,6.5c2.8,1.6,5.5,3.4,7.8,5.8C133.4,187.8,135.2,191,135.3,194.6z M132.4,194.6
			c0.1-2.7-1.2-5.4-3.2-7.6c-1.9-2.2-4.4-4.1-7-5.7c-5.2-3.2-11.1-5.5-17-7.2c-6-1.7-12.1-2.9-18.3-3.8c-3.1-0.4-6.2-0.7-9.3-0.9
			c-3.1-0.2-6.2-0.2-9.4-0.3c-12.5,0.1-25,1.5-37,4.9c-6,1.7-11.8,4-17.1,7.2c-2.6,1.6-5.1,3.5-7,5.7c-1.9,2.2-3.2,4.9-3.1,7.6
			c0.1,2.7,1.5,5.3,3.5,7.3c2,2.1,4.5,3.8,7.1,5.3c5.3,2.9,11.1,4.8,17.1,6.3c5.9,1.5,12,2.5,18.2,3.1c6.1,0.7,12.3,0.9,18.4,0.9
			c6.2,0,12.3-0.4,18.4-1c6.1-0.6,12.2-1.6,18.2-3c5.9-1.4,11.8-3.4,17.1-6.2c2.6-1.5,5.1-3.2,7.1-5.3
			C131,199.9,132.3,197.4,132.4,194.6z"/>
	</g>
	<g id="small_ring">
		<path class="st11" d="M112.6,190.3c0,1.3-0.3,2.5-0.8,3.6c-0.5,1.1-1.2,2.1-2,2.9c-1.6,1.7-3.4,3-5.3,4c-3.8,2.2-7.8,3.7-11.8,4.8
			c-8.1,2.3-16.6,3.2-25,3.2c-8.4-0.1-16.8-1-24.9-3.3c-4.1-1.1-8.1-2.6-11.9-4.8c-1.9-1.1-3.7-2.4-5.3-4c-0.8-0.8-1.5-1.8-2-2.9
			c-0.5-1.1-0.9-2.4-0.8-3.6c0-1.3,0.4-2.5,1-3.5c0.6-1,1.3-1.9,2.1-2.7c1.6-1.5,3.5-2.7,5.4-3.6c3.8-1.9,7.8-3,11.9-3.9
			c4-0.9,8.1-1.5,12.2-1.8c4.1-0.4,8.2-0.5,12.3-0.5c8.2,0.1,16.4,0.7,24.5,2.4c4,0.9,8.1,2,11.9,3.8c1.9,0.9,3.7,2.1,5.4,3.6
			c0.8,0.8,1.5,1.7,2.1,2.7C112.2,187.8,112.6,189,112.6,190.3z M109.8,190.3c0.1-1.6-0.8-3.2-2-4.6c-1.3-1.4-2.9-2.5-4.6-3.5
			c-3.4-2-7.3-3.4-11.2-4.6c-7.8-2.2-16.1-3.2-24.3-3.1c-8.2,0.1-16.4,1-24.3,3.2c-3.9,1.1-7.7,2.5-11.2,4.5c-1.7,1-3.3,2.2-4.6,3.5
			c-1.3,1.4-2.1,3-2,4.6c0.1,1.6,1,3,2.3,4.3c1.3,1.2,3,2.2,4.7,3.1c3.5,1.7,7.3,2.8,11.2,3.7c3.9,0.9,7.9,1.4,11.8,1.8
			c4,0.4,8,0.5,12,0.5c8-0.1,16-0.7,23.8-2.3c3.9-0.8,7.7-1.9,11.2-3.6c1.7-0.9,3.4-1.9,4.7-3.1
			C108.8,193.3,109.7,191.8,109.8,190.3z"/>
	</g>
	<g id="location_marker">
		<g>
			<path class="st5" d="M67.8,7.6c-41.3,0-67,32.6-67,73.9c0,53.2,67,108.7,67,108.7s67-54.8,67-107.8
				C134.7,41.1,109.1,7.6,67.8,7.6z M68.9,108.9c-17.5,0-31.7-14.2-31.7-31.7c0-17.5,14.2-31.7,31.7-31.7s31.7,14.2,31.7,31.7
				C100.6,94.7,86.4,108.9,68.9,108.9z"/>
		</g>
	</g>
</g>
</svg>
