<svg id="logo" xmlns="http://www.w3.org/2000/svg" viewBox="0 0 1070 325"><defs><style>.cls-1{font-size:200px;font-family:FranklinGothic-Heavy, Franklin Gothic Heavy;letter-spacing:-0.02em;}.cls-1,.cls-7{fill:#103e75;}.cls-2{letter-spacing:-0.01em;}.cls-3{fill:#47c7ea;}.cls-4,.cls-5,.cls-6{fill:none;stroke:#000;stroke-miterlimit:10;stroke-width:8px;}.cls-5{stroke-dasharray:14.67 14.67;}.cls-6{stroke-dasharray:15.03 15.03;}</style></defs><title>Artboard 1</title><g id="text"><text class="cls-1" transform="translate(244.07 269.7) scale(1 1.1)">L<tspan class="cls-2" x="103.96" y="0">ONDON</tspan></text><path class="cls-3" d="M269.38,107.4h-14.1V54.15h14.06a20.91,20.91,0,0,1,11.52,3.34,25.1,25.1,0,0,1,8.4,9,28.58,28.58,0,0,1,3.56,12.77,40.9,40.9,0,0,1-.7,8.14,26.39,26.39,0,0,1-8.28,14.5A21.2,21.2,0,0,1,269.38,107.4Zm0-2.78a18.85,18.85,0,0,0,12.87-4.93,23.7,23.7,0,0,0,7.38-13,28.7,28.7,0,0,0,.66-6.13A25.38,25.38,0,0,0,287.1,68a22.48,22.48,0,0,0-7.5-8,18.6,18.6,0,0,0-10.26-3h-11.5v47.65Z"/><path class="cls-3" d="M339.57,107.4H337V54.15h2.57Z"/><path class="cls-3" d="M396.35,107.68a18,18,0,0,1-8.86-2.35A14.46,14.46,0,0,1,381.16,98l2.34-1.08a12,12,0,0,0,6.81,6.84,16.54,16.54,0,0,0,6,1.17,14.23,14.23,0,0,0,9.64-3.46,8.84,8.84,0,0,0,2.92-6.73q-.11-5.16-6.7-9.38-2.74-1.74-5.45-3.15-8.2-4.23-12.31-9.58a10.22,10.22,0,0,1-2.34-6.25,11.71,11.71,0,0,1,2.73-7.69,14.05,14.05,0,0,1,7.71-4.55,17.16,17.16,0,0,1,4.21-.53,26,26,0,0,1,4.23.47,14,14,0,0,1,5.78,2.75,14.67,14.67,0,0,1,4.82,6.41l-2.35,1a12,12,0,0,0-6.81-6.85,15.84,15.84,0,0,0-5.71-1.09A13.35,13.35,0,0,0,387.2,60a8.59,8.59,0,0,0-2.53,6.6,9.36,9.36,0,0,0,2.68,5.54,29.32,29.32,0,0,0,5.38,4.63,42.77,42.77,0,0,0,5.16,3,64.58,64.58,0,0,1,5.95,3.5,22.39,22.39,0,0,1,5.29,4.83,10.91,10.91,0,0,1,2.35,6.65,11.9,11.9,0,0,1-3.08,8,15.08,15.08,0,0,1-8.16,4.51A18.68,18.68,0,0,1,396.35,107.68Z"/><path class="cls-3" d="M473.35,108.17a22.4,22.4,0,0,1-12.5-3.69,26.91,26.91,0,0,1-9-9.91,29.84,29.84,0,0,1,0-27.55,27,27,0,0,1,9-9.93,22.34,22.34,0,0,1,12.5-3.71A23.43,23.43,0,0,1,489.54,60l-2,1.85a21,21,0,0,0-14.21-5.64,20.08,20.08,0,0,0-11.22,3.32A24.25,24.25,0,0,0,454,68.43a26.82,26.82,0,0,0,0,24.73,24.14,24.14,0,0,0,8.09,8.9,20,20,0,0,0,11.22,3.33q8.72,0,15.46-6.81l1.94,1.81Q483.21,108.16,473.35,108.17Z"/><path class="cls-3" d="M551.27,108a20.52,20.52,0,0,1-11.9-3.7,26.57,26.57,0,0,1-8.59-9.93,31.21,31.21,0,0,1,0-27.53A26.59,26.59,0,0,1,539.37,57a21,21,0,0,1,23.84,0,26.59,26.59,0,0,1,8.59,9.91,31.21,31.21,0,0,1,0,27.53,26.57,26.57,0,0,1-8.59,9.93A20.59,20.59,0,0,1,551.27,108Zm0-2.81a18.27,18.27,0,0,0,10.66-3.33,23.66,23.66,0,0,0,7.65-8.9,28.07,28.07,0,0,0,0-24.69,23.77,23.77,0,0,0-7.65-8.91,18.71,18.71,0,0,0-21.28,0A23.91,23.91,0,0,0,533,68.31,27.9,27.9,0,0,0,533,93a23.8,23.8,0,0,0,7.67,8.9A18.22,18.22,0,0,0,551.27,105.23Z"/><path class="cls-3" d="M631.75,107.68,609.16,54.15H612l19.82,46.93L652,54.15h2.83Z"/><path class="cls-3" d="M724.46,107.4h-29.7V54.15h29.7v2.78H697.29V79h22.92v2.78H697.29v22.8h27.17Z"/><path class="cls-3" d="M797.91,107.4h-3L780.19,82.79H767.66V107.4h-2.53V54.15h18a15.24,15.24,0,0,1,11.09,4.19c2.57,2.65,3.87,6.31,3.92,11a12.73,12.73,0,0,1-3.26,9.11,12.5,12.5,0,0,1-4.32,2.94,20,20,0,0,1-7.29,1.45ZM783,80c.27,0,.91,0,1.94-.1a17.45,17.45,0,0,0,3.9-.85,10.59,10.59,0,0,0,4.27-2.64,9.8,9.8,0,0,0,2.45-7q0-5.79-3.08-9a12.82,12.82,0,0,0-9.3-3.46H767.66V80Z"/><path class="cls-3" d="M845.94,107.4h-2.56V54.15h2.56Z"/><path class="cls-3" d="M930.16,107.6,890.09,60.79V107.4h-2.56V53.74l40.06,46.81V54.15h2.57Z"/><path class="cls-3" d="M996.36,107.8a22.43,22.43,0,0,1-12.55-3.7,26.94,26.94,0,0,1-9-9.93,29.86,29.86,0,0,1,0-27.56,26.8,26.8,0,0,1,9-9.91A22.57,22.57,0,0,1,996.36,53q9.23,0,16.66,7l-1.72,2.09q-6.67-6.32-14.94-6.32a20.19,20.19,0,0,0-11.27,3.32A24.3,24.3,0,0,0,977,68a26.84,26.84,0,0,0,0,24.74,24.3,24.3,0,0,0,8.09,8.9A20.11,20.11,0,0,0,996.36,105q8.71,0,15.45-6.84V83l-13.15.16,0-2.78,15.74-.2V99.3Q1006.65,107.81,996.36,107.8Z"/><line class="cls-4" x1="228" y1="30.32" x2="228" y2="37.82"/><line class="cls-5" x1="228" y1="52.5" x2="228" y2="279.91"/><polyline class="cls-4" points="228 287.25 228 294.75 235.5 294.75"/><line class="cls-6" x1="250.53" y1="294.75" x2="1024.41" y2="294.75"/><line class="cls-4" x1="1031.93" y1="294.75" x2="1039.43" y2="294.75"/><path d="M219,30.77a9,9,0,1,1,9,9A9,9,0,0,1,219,30.77Z"/><path d="M1039,303.77a9,9,0,1,0-9-9A9,9,0,0,0,1039,303.77Z"/></g><g id="icon"><g id="large_ring" data-name="large ring"><path class="cls-3" d="M195.92,266.34A16,16,0,0,1,194.5,273a21.3,21.3,0,0,1-3.6,5.57,42.26,42.26,0,0,1-10,8.09,97.87,97.87,0,0,1-23.13,9.72,168.74,168.74,0,0,1-24.44,4.93c-4.12.52-8.26.87-12.4,1.12s-8.29.32-12.44.34c-16.57-.16-33.2-1.95-49.26-6.47a109.55,109.55,0,0,1-11.85-4,79.19,79.19,0,0,1-11.31-5.59,42.2,42.2,0,0,1-9.95-8.1,21.56,21.56,0,0,1-3.6-5.57,15,15,0,0,1,.22-13.18,21.16,21.16,0,0,1,3.73-5.36,41.3,41.3,0,0,1,10.08-7.6,96.83,96.83,0,0,1,23.16-8.67A172.13,172.13,0,0,1,84,234a216.35,216.35,0,0,1,24.54-1.21,239.38,239.38,0,0,1,24.53,1.34,173.41,173.41,0,0,1,24.24,4.14,114.81,114.81,0,0,1,11.84,3.53,76.6,76.6,0,0,1,11.35,5.06,41.29,41.29,0,0,1,10.07,7.61,21,21,0,0,1,3.74,5.36A15.9,15.9,0,0,1,195.92,266.34Zm-3.18,0a15.33,15.33,0,0,0-4.21-10.09,38.88,38.88,0,0,0-9.19-7.46A94,94,0,0,0,157,239.4a165.24,165.24,0,0,0-24-4.85c-4.05-.51-8.13-.86-12.21-1.11s-8.17-.31-12.26-.33c-16.33.16-32.74,1.93-48.44,6.35a105.81,105.81,0,0,0-11.53,3.94,76,76,0,0,0-10.85,5.37,38.86,38.86,0,0,0-9.18,7.47,15.33,15.33,0,0,0-4.21,10.1,15.15,15.15,0,0,0,4.56,9.79,38.18,38.18,0,0,0,9.3,7,93.7,93.7,0,0,0,22.39,8.35,170.24,170.24,0,0,0,23.79,4.12,214.35,214.35,0,0,0,24.17,1.18,237.39,237.39,0,0,0,24.16-1.32,170.34,170.34,0,0,0,23.79-4.05A114.61,114.61,0,0,0,168,288a73.78,73.78,0,0,0,10.89-4.84,38.22,38.22,0,0,0,9.3-7A15.14,15.14,0,0,0,192.74,266.34Z"/></g><g id="small_ring" data-name="small ring"><path class="cls-3" d="M166.33,260.61a10,10,0,0,1-1.06,4.63,15.27,15.27,0,0,1-2.6,3.73,30.05,30.05,0,0,1-6.85,5.19,70.65,70.65,0,0,1-15.42,6.22,119.35,119.35,0,0,1-32.53,4.09,131.51,131.51,0,0,1-32.51-4.17,68.28,68.28,0,0,1-15.44-6.13,29.76,29.76,0,0,1-6.84-5.2,15.27,15.27,0,0,1-2.6-3.73,10.15,10.15,0,0,1-1.06-4.63,10,10,0,0,1,1.27-4.53,14.78,14.78,0,0,1,2.72-3.5,28.86,28.86,0,0,1,7-4.7,70.25,70.25,0,0,1,15.45-5.19,125.33,125.33,0,0,1,16-2.45,152.07,152.07,0,0,1,16.1-.66,162.35,162.35,0,0,1,32.06,3.18,67.14,67.14,0,0,1,15.47,5.1,28.71,28.71,0,0,1,6.95,4.71,15,15,0,0,1,2.72,3.51A9.85,9.85,0,0,1,166.33,260.61Zm-3.18,0a8.89,8.89,0,0,0-2.75-6.12,26.27,26.27,0,0,0-6.08-4.63,67.47,67.47,0,0,0-14.68-5.93,116.43,116.43,0,0,0-31.77-4A127.9,127.9,0,0,0,76.13,244a64.86,64.86,0,0,0-14.71,5.84,26.55,26.55,0,0,0-6.08,4.63,8.93,8.93,0,0,0-2.75,6.14,8.8,8.8,0,0,0,3.08,5.81,26.22,26.22,0,0,0,6.19,4.13,67.62,67.62,0,0,0,14.71,4.9,120.91,120.91,0,0,0,15.54,2.37,150.79,150.79,0,0,0,15.76.65,160.55,160.55,0,0,0,31.29-3.1,64.34,64.34,0,0,0,14.73-4.81,25.76,25.76,0,0,0,6.19-4.14A8.79,8.79,0,0,0,163.15,260.61Z"/></g><g id="location_marker" data-name="location marker"><path class="cls-7" d="M108,21.75c-54,0-87.54,42.64-87.54,96.63S108,260.49,108,260.49s87.54-87,87.54-141S162,21.75,108,21.75Zm1.45,132.46a41.4,41.4,0,1,1,41.39-41.39A41.39,41.39,0,0,1,109.41,154.21Z"/></g></g></svg>