<?xml version="1.0" encoding="utf-8"?>
<!-- Generator: Adobe Illustrator 22.1.0, SVG Export Plug-In . SVG Version: 6.00 Build 0)  -->
<svg version="1.1" id="Layer_1" xmlns="http://www.w3.org/2000/svg" xmlns:xlink="http://www.w3.org/1999/xlink" x="0px" y="0px"
	 viewBox="0 0 20 15" style="enable-background:new 0 0 20 15;" xml:space="preserve">
<style type="text/css">
	.st0{fill:#FFFFFF;}
</style>
<g>
	<g id="Lozenge_17_">
		<g>
			<path class="st0" d="M19.8,3.2c0,0-0.2-1.5-0.8-2.1c-0.8-0.8-1.6-0.9-2-0.9C14.2,0,10,0,10,0h0c0,0-4.2,0-7,0.2
				c-0.4,0-1.2,0.1-2,0.9C0.4,1.8,0.2,3.2,0.2,3.2S0,5,0,6.7v1.6c0,1.7,0.2,3.5,0.2,3.5s0.2,1.5,0.8,2.1c0.8,0.8,1.8,0.8,2.2,0.9
				C4.8,14.9,10,15,10,15s4.2,0,7-0.2c0.4,0,1.2-0.1,2-0.9c0.6-0.6,0.8-2.1,0.8-2.1S20,10,20,8.3V6.7C20,5,19.8,3.2,19.8,3.2z
				 M7.9,10.3l0-6l5.4,3L7.9,10.3z"/>
		</g>
	</g>
</g>
</svg>
